<?xml version="1.0" standalone="no"?>
<!DOCTYPE svg PUBLIC "-//W3C//DTD SVG 20010904//EN"
 "http://www.w3.org/TR/2001/REC-SVG-20010904/DTD/svg10.dtd">
<svg version="1.0" xmlns="http://www.w3.org/2000/svg"
 width="275.000000pt" height="275.000000pt" viewBox="0 0 275.000000 275.000000"
 preserveAspectRatio="xMidYMid meet">
<metadata>
Created by potrace 1.14, written by Peter Selinger 2001-2017
</metadata>
<g transform="translate(0.000000,275.000000) scale(0.100000,-0.100000)"
fill="#000000" stroke="none">
<path d="M2307 2123 c1 -160 0 -169 -20 -185 -17 -13 -19 -19 -8 -31 10 -13 9
-20 -4 -41 -16 -24 -16 -26 11 -48 58 -49 64 -60 44 -73 -7 -4 -3 -17 8 -33
21 -30 21 -31 21 -156 1 -66 -3 -94 -14 -106 -19 -21 -19 -28 5 -75 11 -21 18
-48 15 -59 -2 -12 -6 -58 -9 -103 -3 -45 -9 -88 -12 -97 -7 -18 -62 -32 -76
-18 -13 13 -1 102 14 102 6 0 8 3 5 7 -4 3 -3 11 2 17 4 6 11 21 14 34 8 32
-16 39 -137 40 -71 1 -105 6 -123 17 -15 10 -32 13 -46 9 -40 -14 -129 -4
-165 18 -27 17 -38 19 -52 10 -20 -12 -29 -11 -82 7 -21 7 -45 11 -55 10 -10
-2 -32 1 -50 5 -19 4 -40 3 -54 -4 -17 -10 -28 -8 -55 6 -19 10 -34 21 -34 25
0 14 -79 40 -130 42 -54 2 -55 1 -53 -25 1 -20 -5 -29 -27 -38 -31 -13 -71 -9
-170 17 -77 19 -87 26 -95 63 -5 23 -14 30 -50 39 -34 8 -48 19 -60 42 -20 38
-125 143 -162 162 -15 8 -52 20 -82 26 -165 35 -348 -71 -458 -267 -62 -110
-85 -206 -85 -357 -2 -255 132 -429 340 -440 36 -2 93 8 167 28 6 2 33 15 60
30 55 29 105 73 150 133 48 64 148 159 170 161 18 1 37 -7 123 -52 18 -9 52
-19 75 -22 72 -9 77 -16 77 -88 0 -68 32 -151 54 -140 6 3 19 8 29 11 9 4 17
10 17 14 0 12 81 110 91 110 5 0 13 -8 16 -17 4 -10 17 -32 31 -50 13 -18 21
-36 19 -40 -7 -11 13 -37 40 -51 18 -10 23 -9 28 6 4 14 38 35 97 60 17 8 6
-21 -24 -66 -27 -38 -38 -47 -58 -44 -23 3 -24 2 -9 -13 21 -21 58 -5 81 35 9
16 30 36 47 45 33 16 35 14 32 -32 -3 -27 15 -38 35 -22 9 7 35 13 58 14 35 0
41 3 39 20 -3 40 44 48 49 8 2 -22 9 -29 29 -31 30 -3 52 23 63 76 9 38 18 39
57 11 16 -11 55 -24 86 -28 33 -5 61 -15 68 -25 14 -18 55 -22 71 -6 13 13 76
31 69 20 -3 -5 -1 -11 4 -14 5 -4 12 2 14 11 4 17 5 17 6 1 1 -11 6 -15 16
-12 8 4 12 10 10 15 -10 16 49 22 94 10 78 -21 144 -27 229 -22 21 1 22 4 22
117 0 74 -4 113 -10 109 -5 -3 -10 -2 -10 2 0 5 -10 9 -22 10 -13 0 -39 4 -58
8 -19 3 -48 6 -64 7 -16 0 -36 6 -44 14 -10 10 -10 14 -1 14 7 0 10 3 6 6 -3
4 0 13 8 21 18 17 19 70 4 168 -17 115 -25 443 -15 605 1 30 -1 80 -5 111 -19
124 -14 192 14 188 7 -1 23 -1 36 0 20 1 21 3 11 16 -7 9 -23 13 -36 11 -55
-10 -61 42 -15 118 12 18 21 38 21 45 0 8 -41 11 -132 11 l-133 0 2 -167z
m-736 -1376 c-13 -13 -26 -3 -16 12 3 6 11 8 17 5 6 -4 6 -10 -1 -17z"/>
</g>
</svg>
